<mxfile host="app.diagrams.net" modified="2024-04-04T21:55:52.035Z" agent="Mozilla/5.0 (Windows NT 10.0; Win64; x64) AppleWebKit/537.36 (KHTML, like Gecko) Chrome/123.0.0.0 Safari/537.36" etag="Z7dfg2DUfIwNWRTsOdWQ" version="23.0.1" type="github" pages="2">
  <diagram name="Page-1" id="2cc2dc42-3aac-f2a9-1cec-7a8b7cbee084">
    <mxGraphModel dx="1760" dy="1092" grid="1" gridSize="10" guides="1" tooltips="1" connect="1" arrows="1" fold="1" page="1" pageScale="1" pageWidth="1100" pageHeight="850" background="none" math="0" shadow="0">
      <root>
        <mxCell id="0" />
        <mxCell id="1" parent="0" />
        <mxCell id="7026571954dc6520-1" value="" style="strokeWidth=1;shadow=0;dashed=0;align=center;html=1;shape=mxgraph.mockup.containers.browserWindow;rSize=0;strokeColor=#666666;mainText=,;recursiveResize=0;rounded=0;labelBackgroundColor=none;fontFamily=Verdana;fontSize=12" parent="1" vertex="1">
          <mxGeometry x="30" y="20" width="1050" height="820" as="geometry" />
        </mxCell>
        <mxCell id="7026571954dc6520-2" value="Page 1" style="strokeWidth=1;shadow=0;dashed=0;align=center;html=1;shape=mxgraph.mockup.containers.anchor;fontSize=17;fontColor=#666666;align=left;" parent="7026571954dc6520-1" vertex="1">
          <mxGeometry x="60" y="12" width="110" height="26" as="geometry" />
        </mxCell>
        <mxCell id="7026571954dc6520-3" value="https://www.sistem-informasi-rekam-medis.com" style="strokeWidth=1;shadow=0;dashed=0;align=center;html=1;shape=mxgraph.mockup.containers.anchor;rSize=0;fontSize=17;fontColor=#666666;align=left;" parent="7026571954dc6520-1" vertex="1">
          <mxGeometry x="130" y="60" width="380" height="26" as="geometry" />
        </mxCell>
        <mxCell id="7026571954dc6520-4" value="SIRM" style="text;html=1;points=[];align=left;verticalAlign=top;spacingTop=-4;fontSize=30;fontFamily=Verdana" parent="7026571954dc6520-1" vertex="1">
          <mxGeometry x="15" y="116" width="95" height="50" as="geometry" />
        </mxCell>
        <mxCell id="7026571954dc6520-14" value="Search" style="strokeWidth=1;shadow=0;dashed=0;align=center;html=1;shape=mxgraph.mockup.forms.searchBox;strokeColor=#999999;mainText=;strokeColor2=#008cff;fontColor=#666666;fontSize=17;align=left;spacingLeft=3;rounded=0;labelBackgroundColor=none;" parent="7026571954dc6520-1" vertex="1">
          <mxGeometry x="580" y="260" width="220" height="30" as="geometry" />
        </mxCell>
        <mxCell id="7026571954dc6520-18" value="laporan" style="strokeWidth=1;shadow=0;dashed=0;align=center;html=1;shape=mxgraph.mockup.buttons.button;strokeColor=#666666;mainText=;buttonStyle=round;fontSize=17;fontStyle=0;fillColor=none;whiteSpace=wrap;rounded=0;labelBackgroundColor=none;" parent="7026571954dc6520-1" vertex="1">
          <mxGeometry x="830" y="260" width="190" height="30" as="geometry" />
        </mxCell>
        <mxCell id="7026571954dc6520-21" value="" style="verticalLabelPosition=bottom;shadow=0;dashed=0;align=center;html=1;verticalAlign=top;strokeWidth=1;shape=mxgraph.mockup.markup.line;strokeColor=#999999;rounded=0;labelBackgroundColor=none;fillColor=#ffffff;fontFamily=Verdana;fontSize=12;fontColor=#000000;" parent="7026571954dc6520-1" vertex="1">
          <mxGeometry y="160" width="1050" height="20" as="geometry" />
        </mxCell>
        <mxCell id="UpDbblwlmT6z-XaKwdTc-1" value="" style="shape=actor;whiteSpace=wrap;html=1;" vertex="1" parent="7026571954dc6520-1">
          <mxGeometry x="1010" y="127" width="20" height="23" as="geometry" />
        </mxCell>
        <mxCell id="UpDbblwlmT6z-XaKwdTc-2" value="" style="rounded=0;whiteSpace=wrap;html=1;strokeColor=#666666;" vertex="1" parent="7026571954dc6520-1">
          <mxGeometry x="20" y="310" width="1000" height="60" as="geometry" />
        </mxCell>
        <mxCell id="UpDbblwlmT6z-XaKwdTc-3" value="rekam medis" style="strokeWidth=1;shadow=0;dashed=0;align=center;html=1;shape=mxgraph.mockup.buttons.button;strokeColor=#666666;mainText=;buttonStyle=round;fontSize=17;fontStyle=0;fillColor=none;whiteSpace=wrap;rounded=0;labelBackgroundColor=none;" vertex="1" parent="7026571954dc6520-1">
          <mxGeometry x="860" y="325" width="140" height="30" as="geometry" />
        </mxCell>
        <mxCell id="UpDbblwlmT6z-XaKwdTc-5" value="" style="rounded=0;whiteSpace=wrap;html=1;strokeColor=#666666;" vertex="1" parent="7026571954dc6520-1">
          <mxGeometry x="20" y="390" width="1000" height="60" as="geometry" />
        </mxCell>
        <mxCell id="UpDbblwlmT6z-XaKwdTc-6" value="rekam medis" style="strokeWidth=1;shadow=0;dashed=0;align=center;html=1;shape=mxgraph.mockup.buttons.button;strokeColor=#666666;mainText=;buttonStyle=round;fontSize=17;fontStyle=0;fillColor=none;whiteSpace=wrap;rounded=0;labelBackgroundColor=none;" vertex="1" parent="7026571954dc6520-1">
          <mxGeometry x="860" y="405" width="140" height="30" as="geometry" />
        </mxCell>
        <mxCell id="UpDbblwlmT6z-XaKwdTc-7" value="" style="rounded=0;whiteSpace=wrap;html=1;strokeColor=#666666;" vertex="1" parent="7026571954dc6520-1">
          <mxGeometry x="20" y="470" width="1000" height="60" as="geometry" />
        </mxCell>
        <mxCell id="UpDbblwlmT6z-XaKwdTc-8" value="rekam medis" style="strokeWidth=1;shadow=0;dashed=0;align=center;html=1;shape=mxgraph.mockup.buttons.button;strokeColor=#666666;mainText=;buttonStyle=round;fontSize=17;fontStyle=0;fillColor=none;whiteSpace=wrap;rounded=0;labelBackgroundColor=none;" vertex="1" parent="7026571954dc6520-1">
          <mxGeometry x="860" y="485" width="140" height="30" as="geometry" />
        </mxCell>
        <mxCell id="UpDbblwlmT6z-XaKwdTc-9" value="" style="rounded=0;whiteSpace=wrap;html=1;strokeColor=#666666;" vertex="1" parent="7026571954dc6520-1">
          <mxGeometry x="20" y="550" width="1000" height="60" as="geometry" />
        </mxCell>
        <mxCell id="UpDbblwlmT6z-XaKwdTc-10" value="rekam medis" style="strokeWidth=1;shadow=0;dashed=0;align=center;html=1;shape=mxgraph.mockup.buttons.button;strokeColor=#666666;mainText=;buttonStyle=round;fontSize=17;fontStyle=0;fillColor=none;whiteSpace=wrap;rounded=0;labelBackgroundColor=none;" vertex="1" parent="7026571954dc6520-1">
          <mxGeometry x="860" y="565" width="140" height="30" as="geometry" />
        </mxCell>
        <mxCell id="UpDbblwlmT6z-XaKwdTc-12" value="&lt;font style=&quot;font-size: 21px;&quot;&gt;001&lt;/font&gt;" style="text;html=1;strokeColor=none;fillColor=none;align=center;verticalAlign=middle;whiteSpace=wrap;rounded=0;fontSize=15;" vertex="1" parent="7026571954dc6520-1">
          <mxGeometry x="60" y="325" width="60" height="30" as="geometry" />
        </mxCell>
        <mxCell id="UpDbblwlmT6z-XaKwdTc-14" value="&lt;font style=&quot;font-size: 21px;&quot;&gt;002&lt;/font&gt;" style="text;html=1;strokeColor=none;fillColor=none;align=center;verticalAlign=middle;whiteSpace=wrap;rounded=0;fontSize=15;" vertex="1" parent="7026571954dc6520-1">
          <mxGeometry x="59" y="405" width="60" height="30" as="geometry" />
        </mxCell>
        <mxCell id="UpDbblwlmT6z-XaKwdTc-15" value="&lt;font style=&quot;font-size: 21px;&quot;&gt;003&lt;/font&gt;" style="text;html=1;strokeColor=none;fillColor=none;align=center;verticalAlign=middle;whiteSpace=wrap;rounded=0;fontSize=15;" vertex="1" parent="7026571954dc6520-1">
          <mxGeometry x="56" y="485" width="60" height="30" as="geometry" />
        </mxCell>
        <mxCell id="UpDbblwlmT6z-XaKwdTc-16" value="&lt;font style=&quot;font-size: 21px;&quot;&gt;004&lt;/font&gt;" style="text;html=1;strokeColor=none;fillColor=none;align=center;verticalAlign=middle;whiteSpace=wrap;rounded=0;fontSize=15;" vertex="1" parent="7026571954dc6520-1">
          <mxGeometry x="56" y="565" width="60" height="30" as="geometry" />
        </mxCell>
      </root>
    </mxGraphModel>
  </diagram>
  <diagram id="4Tu4He_YxCcZjGot1lAT" name="Page-2">
    <mxGraphModel dx="1600" dy="993" grid="1" gridSize="10" guides="1" tooltips="1" connect="1" arrows="1" fold="1" page="1" pageScale="1" pageWidth="1100" pageHeight="850" math="0" shadow="0">
      <root>
        <mxCell id="0" />
        <mxCell id="1" parent="0" />
        <mxCell id="gWhDpg8vGQBkPQLJpGAY-1" value="" style="strokeWidth=1;shadow=0;dashed=0;align=center;html=1;shape=mxgraph.mockup.containers.browserWindow;rSize=0;strokeColor=#666666;mainText=,;recursiveResize=0;rounded=0;labelBackgroundColor=none;fontFamily=Verdana;fontSize=12" vertex="1" parent="1">
          <mxGeometry x="20" y="10" width="1050" height="820" as="geometry" />
        </mxCell>
        <mxCell id="gWhDpg8vGQBkPQLJpGAY-2" value="Page 1" style="strokeWidth=1;shadow=0;dashed=0;align=center;html=1;shape=mxgraph.mockup.containers.anchor;fontSize=17;fontColor=#666666;align=left;" vertex="1" parent="gWhDpg8vGQBkPQLJpGAY-1">
          <mxGeometry x="60" y="12" width="110" height="26" as="geometry" />
        </mxCell>
        <mxCell id="gWhDpg8vGQBkPQLJpGAY-3" value="https://www.sistem-informasi-rekam-medis.com" style="strokeWidth=1;shadow=0;dashed=0;align=center;html=1;shape=mxgraph.mockup.containers.anchor;rSize=0;fontSize=17;fontColor=#666666;align=left;" vertex="1" parent="gWhDpg8vGQBkPQLJpGAY-1">
          <mxGeometry x="130" y="60" width="380" height="26" as="geometry" />
        </mxCell>
        <mxCell id="gWhDpg8vGQBkPQLJpGAY-4" value="SIRM" style="text;html=1;points=[];align=left;verticalAlign=top;spacingTop=-4;fontSize=30;fontFamily=Verdana" vertex="1" parent="gWhDpg8vGQBkPQLJpGAY-1">
          <mxGeometry x="15" y="116" width="95" height="50" as="geometry" />
        </mxCell>
        <mxCell id="gWhDpg8vGQBkPQLJpGAY-7" value="" style="verticalLabelPosition=bottom;shadow=0;dashed=0;align=center;html=1;verticalAlign=top;strokeWidth=1;shape=mxgraph.mockup.markup.line;strokeColor=#999999;rounded=0;labelBackgroundColor=none;fillColor=#ffffff;fontFamily=Verdana;fontSize=12;fontColor=#000000;" vertex="1" parent="gWhDpg8vGQBkPQLJpGAY-1">
          <mxGeometry y="160" width="1050" height="20" as="geometry" />
        </mxCell>
        <mxCell id="gWhDpg8vGQBkPQLJpGAY-8" value="" style="shape=actor;whiteSpace=wrap;html=1;" vertex="1" parent="gWhDpg8vGQBkPQLJpGAY-1">
          <mxGeometry x="1010" y="127" width="20" height="23" as="geometry" />
        </mxCell>
        <mxCell id="gWhDpg8vGQBkPQLJpGAY-12" value="kembali" style="strokeWidth=1;shadow=0;dashed=0;align=center;html=1;shape=mxgraph.mockup.buttons.button;strokeColor=#666666;mainText=;buttonStyle=round;fontSize=17;fontStyle=0;fillColor=none;whiteSpace=wrap;rounded=0;labelBackgroundColor=none;" vertex="1" parent="gWhDpg8vGQBkPQLJpGAY-1">
          <mxGeometry x="45" y="230" width="140" height="30" as="geometry" />
        </mxCell>
        <mxCell id="gWhDpg8vGQBkPQLJpGAY-21" value="" style="strokeWidth=1;shadow=0;dashed=0;align=center;html=1;shape=mxgraph.mockup.containers.rrect;rSize=0;strokeColor=#666666;" vertex="1" parent="gWhDpg8vGQBkPQLJpGAY-1">
          <mxGeometry x="40" y="300" width="240" height="100" as="geometry" />
        </mxCell>
        <mxCell id="gWhDpg8vGQBkPQLJpGAY-22" value="form 1" style="strokeColor=inherit;fillColor=inherit;gradientColor=inherit;strokeWidth=1;shadow=0;dashed=0;align=center;html=1;shape=mxgraph.mockup.containers.rrect;rSize=0;fontSize=17;fontColor=#666666;fontStyle=1;resizeWidth=1;whiteSpace=wrap;" vertex="1" parent="gWhDpg8vGQBkPQLJpGAY-21">
          <mxGeometry width="240" height="26" relative="1" as="geometry" />
        </mxCell>
        <mxCell id="gWhDpg8vGQBkPQLJpGAY-23" value="form 2" style="strokeColor=inherit;fillColor=inherit;gradientColor=inherit;strokeWidth=1;shadow=0;dashed=0;align=center;html=1;shape=mxgraph.mockup.containers.rrect;rSize=0;fontSize=17;fontColor=#666666;fontStyle=1;resizeWidth=1;whiteSpace=wrap;" vertex="1" parent="gWhDpg8vGQBkPQLJpGAY-21">
          <mxGeometry width="240" height="26" relative="1" as="geometry">
            <mxPoint y="26" as="offset" />
          </mxGeometry>
        </mxCell>
        <mxCell id="gWhDpg8vGQBkPQLJpGAY-24" value="form 3" style="strokeWidth=1;shadow=0;dashed=0;align=center;html=1;shape=mxgraph.mockup.containers.rrect;rSize=0;fontSize=17;fontColor=#ffffff;fontStyle=1;fillColor=#008cff;strokeColor=#008cff;resizeWidth=1;whiteSpace=wrap;" vertex="1" parent="gWhDpg8vGQBkPQLJpGAY-21">
          <mxGeometry width="240" height="26" relative="1" as="geometry">
            <mxPoint y="52" as="offset" />
          </mxGeometry>
        </mxCell>
        <mxCell id="gWhDpg8vGQBkPQLJpGAY-26" value="form 4" style="strokeColor=inherit;fillColor=inherit;gradientColor=inherit;strokeWidth=1;shadow=0;dashed=0;align=center;html=1;shape=mxgraph.mockup.containers.rrect;rSize=0;fontSize=17;fontColor=#666666;fontStyle=1;resizeWidth=1;whiteSpace=wrap;" vertex="1" parent="gWhDpg8vGQBkPQLJpGAY-21">
          <mxGeometry width="240" height="26" relative="1" as="geometry">
            <mxPoint y="79" as="offset" />
          </mxGeometry>
        </mxCell>
        <mxCell id="gWhDpg8vGQBkPQLJpGAY-29" value="" style="strokeWidth=1;shadow=0;dashed=0;align=center;html=1;shape=mxgraph.mockup.containers.marginRect2;rectMarginTop=32;strokeColor=#666666;gradientColor=none;whiteSpace=wrap;" vertex="1" parent="gWhDpg8vGQBkPQLJpGAY-1">
          <mxGeometry x="320" y="270" width="690" height="490" as="geometry" />
        </mxCell>
        <mxCell id="gWhDpg8vGQBkPQLJpGAY-33" value="" style="strokeWidth=1;shadow=0;dashed=0;align=center;html=1;shape=mxgraph.mockup.containers.topButton;rSize=5;strokeColor=#008cff;fillColor=#008cff;gradientColor=none;resizeWidth=1;movable=0;deletable=1;" vertex="1" parent="gWhDpg8vGQBkPQLJpGAY-29">
          <mxGeometry width="690" height="7" relative="1" as="geometry">
            <mxPoint y="25" as="offset" />
          </mxGeometry>
        </mxCell>
        <mxCell id="gWhDpg8vGQBkPQLJpGAY-34" value="From" style="strokeWidth=1;shadow=0;dashed=0;align=center;html=1;shape=mxgraph.mockup.forms.anchor;align=right;spacingRight=2;fontColor=#666666;" vertex="1" parent="gWhDpg8vGQBkPQLJpGAY-29">
          <mxGeometry x="30" y="60" width="50" height="18" as="geometry" />
        </mxCell>
        <mxCell id="gWhDpg8vGQBkPQLJpGAY-35" value="john@jgraph.com" style="strokeWidth=1;shadow=0;dashed=0;align=center;html=1;shape=mxgraph.mockup.forms.rrect;fillColor=#ffffff;rSize=0;fontColor=#666666;align=left;spacingLeft=3;strokeColor=#999999;" vertex="1" parent="gWhDpg8vGQBkPQLJpGAY-29">
          <mxGeometry x="80" y="60" width="590" height="18" as="geometry" />
        </mxCell>
        <mxCell id="gWhDpg8vGQBkPQLJpGAY-36" value="Subject" style="strokeWidth=1;shadow=0;dashed=0;align=center;html=1;shape=mxgraph.mockup.forms.anchor;align=right;spacingRight=2;fontColor=#666666;" vertex="1" parent="gWhDpg8vGQBkPQLJpGAY-29">
          <mxGeometry x="30" y="95" width="50" height="18" as="geometry" />
        </mxCell>
        <mxCell id="gWhDpg8vGQBkPQLJpGAY-37" value="Greeting" style="strokeWidth=1;shadow=0;dashed=0;align=center;html=1;shape=mxgraph.mockup.forms.rrect;fillColor=#ffffff;rSize=0;fontColor=#666666;align=left;spacingLeft=3;strokeColor=#999999;" vertex="1" parent="gWhDpg8vGQBkPQLJpGAY-29">
          <mxGeometry x="80" y="95" width="590" height="18" as="geometry" />
        </mxCell>
        <mxCell id="gWhDpg8vGQBkPQLJpGAY-38" value="To" style="strokeWidth=1;shadow=0;dashed=0;align=center;html=1;shape=mxgraph.mockup.forms.anchor;align=right;spacingRight=2;fontColor=#666666;" vertex="1" parent="gWhDpg8vGQBkPQLJpGAY-29">
          <mxGeometry x="30" y="130" width="50" height="18" as="geometry" />
        </mxCell>
        <mxCell id="gWhDpg8vGQBkPQLJpGAY-39" value="fred@jgraph.com" style="strokeWidth=1;shadow=0;dashed=0;align=center;html=1;shape=mxgraph.mockup.forms.rrect;fillColor=#ffffff;rSize=0;fontColor=#666666;align=left;spacingLeft=3;strokeColor=#999999;" vertex="1" parent="gWhDpg8vGQBkPQLJpGAY-29">
          <mxGeometry x="80" y="130" width="590" height="18" as="geometry" />
        </mxCell>
        <mxCell id="gWhDpg8vGQBkPQLJpGAY-40" value="CC" style="strokeWidth=1;shadow=0;dashed=0;align=center;html=1;shape=mxgraph.mockup.forms.anchor;align=right;spacingRight=2;fontColor=#666666;" vertex="1" parent="gWhDpg8vGQBkPQLJpGAY-29">
          <mxGeometry x="30" y="165" width="50" height="18" as="geometry" />
        </mxCell>
        <mxCell id="gWhDpg8vGQBkPQLJpGAY-41" value="" style="strokeWidth=1;shadow=0;dashed=0;align=center;html=1;shape=mxgraph.mockup.forms.rrect;fillColor=#ffffff;rSize=0;fontColor=#666666;align=left;spacingLeft=3;strokeColor=#999999;" vertex="1" parent="gWhDpg8vGQBkPQLJpGAY-29">
          <mxGeometry x="80" y="165" width="590" height="18" as="geometry" />
        </mxCell>
        <mxCell id="gWhDpg8vGQBkPQLJpGAY-42" value="BCC" style="strokeWidth=1;shadow=0;dashed=0;align=center;html=1;shape=mxgraph.mockup.forms.anchor;align=right;spacingRight=2;fontColor=#666666;" vertex="1" parent="gWhDpg8vGQBkPQLJpGAY-29">
          <mxGeometry x="30" y="200" width="50" height="18" as="geometry" />
        </mxCell>
        <mxCell id="gWhDpg8vGQBkPQLJpGAY-43" value="" style="strokeWidth=1;shadow=0;dashed=0;align=center;html=1;shape=mxgraph.mockup.forms.rrect;fillColor=#ffffff;rSize=0;fontColor=#666666;align=left;spacingLeft=3;strokeColor=#999999;" vertex="1" parent="gWhDpg8vGQBkPQLJpGAY-29">
          <mxGeometry x="80" y="200" width="590" height="18" as="geometry" />
        </mxCell>
        <mxCell id="gWhDpg8vGQBkPQLJpGAY-44" value="Lorem ipsum dolor sit amet, consectetur adipisicing elit, sed do eiusmod tempor incididunt ut labore et dolore magna aliqua. Ut enim ad minim veniam, quis nostrud exercitation ullamco laboris nisi ut aliquip ex ea commodo consequat. Duis aute irure dolor in reprehenderit in voluptate velit esse cillum dolore eu fugiat nulla pariatur. Excepteur sint occaecat cupidatat non proident, sunt in culpa qui officia deserunt mollit anim id est laborum." style="strokeWidth=1;shadow=0;dashed=0;align=center;html=1;shape=mxgraph.mockup.forms.rrect;fillColor=#ffffff;rSize=0;fontColor=#666666;align=left;spacingLeft=3;strokeColor=#999999;verticalAlign=top;whiteSpace=wrap;" vertex="1" parent="gWhDpg8vGQBkPQLJpGAY-29">
          <mxGeometry x="80" y="235" width="590" height="135" as="geometry" />
        </mxCell>
      </root>
    </mxGraphModel>
  </diagram>
</mxfile>
